<svg width="100" height="100" viewBox="0 0 100 100" fill="none" xmlns="http://www.w3.org/2000/svg">
<g clip-path="url(#clip0_790_7926)">
<path d="M90.3 74.4C89 75.1 87.6 75.7 86.2 76.2C81.7 77.9 77 78.7 72.2 78.7C53.7 78.7 37.6 66 37.6 49.7C37.6 47.5 38.2 45.4 39.4 43.5C40.5 41.6 42.1 40.1 44.1 39C27.4 39.7 23.1 57.1 23.1 67.3C23.1 96.2 49.7 99.1 55.4 99.1C58.5 99.1 63.1 98.2 65.9 97.3L66.4 97.1C77.2 93.4 86.3 86.1 92.4 76.5C92.6 76.2 92.7 75.9 92.6 75.5C92.6 75.2 92.4 74.8 92.2 74.6C92 74.3 91.6 74.2 91.3 74.1C90.9 74.2 90.6 74.3 90.3 74.4Z" fill="url(#paint0_linear_790_7926)"/>
<path opacity="0.35" d="M90.3 74.4C89 75.1 87.6 75.7 86.2 76.2C81.7 77.9 77 78.7 72.2 78.7C53.7 78.7 37.6 66 37.6 49.7C37.6 47.5 38.2 45.4 39.4 43.5C40.5 41.6 42.1 40.1 44.1 39C27.4 39.7 23.1 57.1 23.1 67.3C23.1 96.2 49.7 99.1 55.4 99.1C58.5 99.1 63.1 98.2 65.9 97.3L66.4 97.1C77.2 93.4 86.3 86.1 92.4 76.5C92.6 76.2 92.7 75.9 92.6 75.5C92.6 75.2 92.4 74.8 92.2 74.6C92 74.3 91.6 74.2 91.3 74.1C90.9 74.2 90.6 74.3 90.3 74.4Z" fill="url(#paint1_radial_790_7926)"/>
<path d="M41.3 94.2999C37.8 92.0999 34.8 89.2999 32.4 85.9999C29.7 82.2999 27.8 77.9999 26.9 73.4999C26 68.9999 26.1 64.2999 27.2 59.8999C28.3 55.3999 30.4 51.2999 33.2 47.6999C36.1 44.0999 39.7 41.1999 43.8 39.1999C45 38.5999 47.1 37.5999 49.9 37.5999C51.9 37.5999 53.8 38.0999 55.5 38.9999C57.2 39.8999 58.8 41.1999 59.9 42.6999C61.5 44.7999 62.3 47.3999 62.4 49.9999C62.4 49.8999 72 18.8999 31.2 18.8999C14.1 18.7999 1.97818e-05 35.0999 1.97818e-05 49.3999C-0.0999802 56.9999 1.50002 64.3999 4.70002 71.2999C10 82.2999 19.1 91.0999 30.3 95.8999C41.6 100.7 54.2 101.3 65.8 97.3999C61.7 98.6999 57.4 99.0999 53.2 98.4999C49 97.9999 44.9 96.5999 41.3 94.2999Z" fill="url(#paint2_linear_790_7926)"/>
<path opacity="0.41" d="M41.3 94.2999C37.8 92.0999 34.8 89.2999 32.4 85.9999C29.7 82.2999 27.8 77.9999 26.9 73.4999C26 68.9999 26.1 64.2999 27.2 59.8999C28.3 55.3999 30.4 51.2999 33.2 47.6999C36.1 44.0999 39.7 41.1999 43.8 39.1999C45 38.5999 47.1 37.5999 49.9 37.5999C51.9 37.5999 53.8 38.0999 55.5 38.9999C57.2 39.8999 58.8 41.1999 59.9 42.6999C61.5 44.7999 62.3 47.3999 62.4 49.9999C62.4 49.8999 72 18.8999 31.2 18.8999C14.1 18.7999 1.97818e-05 35.0999 1.97818e-05 49.3999C-0.0999802 56.9999 1.50002 64.3999 4.70002 71.2999C10 82.2999 19.1 91.0999 30.3 95.8999C41.6 100.7 54.2 101.3 65.8 97.3999C61.7 98.6999 57.4 99.0999 53.2 98.4999C49 97.9999 44.9 96.5999 41.3 94.2999Z" fill="url(#paint3_radial_790_7926)"/>
<path d="M59.5 58.1C59.2 58.5 58.2 59.1 58.2 60.3C58.2 61.3 58.9 62.3 60 63.1C65.6 67 76.2 66.5 76.2 66.5C80.4 66.5 84.4 65.4 88 63.2C91.6 61.1 94.6 58.1 96.7 54.5C98.8 50.9 99.9 46.8 99.9 42.6C100 33.8 96.8 28 95.5 25.4C87.3 9.3 69.4 0 50 0C36.9 0 24.2 5.2 14.9 14.4C5.5 23.6 0.2 36.2 0 49.3C0.2 35 14.4 23.5 31.2 23.5C32.6 23.5 40.4 23.6 47.6 27.4C54 30.8 57.3 34.8 59.6 38.8C62 43 62.4 48.2 62.4 50.3C62.4 52.4 61.5 55.6 59.5 58.1Z" fill="url(#paint4_radial_790_7926)"/>
<path d="M59.5 58.1C59.2 58.5 58.2 59.1 58.2 60.3C58.2 61.3 58.9 62.3 60 63.1C65.6 67 76.2 66.5 76.2 66.5C80.4 66.5 84.4 65.4 88 63.2C91.6 61.1 94.6 58.1 96.7 54.5C98.8 50.9 99.9 46.8 99.9 42.6C100 33.8 96.8 28 95.5 25.4C87.3 9.3 69.4 0 50 0C36.9 0 24.2 5.2 14.9 14.4C5.5 23.6 0.2 36.2 0 49.3C0.2 35 14.4 23.5 31.2 23.5C32.6 23.5 40.4 23.6 47.6 27.4C54 30.8 57.3 34.8 59.6 38.8C62 43 62.4 48.2 62.4 50.3C62.4 52.4 61.5 55.6 59.5 58.1Z" fill="url(#paint5_radial_790_7926)"/>
</g>
<defs>
<linearGradient id="paint0_linear_790_7926" x1="22.9349" y1="69.145" x2="92.5725" y2="69.145" gradientUnits="userSpaceOnUse">
<stop stop-color="#4A4A4A"/>
<stop offset="1" stop-color="#404040"/>
</linearGradient>
<radialGradient id="paint1_radial_790_7926" cx="0" cy="0" r="1" gradientUnits="userSpaceOnUse" gradientTransform="translate(61.4073 69.7013) scale(37.2535 35.3908)">
<stop offset="0.72" stop-opacity="0"/>
<stop offset="0.95" stop-opacity="0.53"/>
<stop offset="1"/>
</radialGradient>
<linearGradient id="paint2_linear_790_7926" x1="59.6801" y1="38.9582" x2="16.1733" y2="86.3473" gradientUnits="userSpaceOnUse">
<stop stop-color="#7E7E7E"/>
<stop offset="0.16" stop-color="#777777"/>
<stop offset="0.67" stop-color="#656565"/>
<stop offset="1" stop-color="#5E5E5E"/>
</linearGradient>
<radialGradient id="paint3_radial_790_7926" cx="0" cy="0" r="1" gradientUnits="userSpaceOnUse" gradientTransform="translate(27.552 77.736) rotate(-81.3844) scale(56.0195 45.258)">
<stop offset="0.76" stop-opacity="0"/>
<stop offset="0.95" stop-opacity="0.5"/>
<stop offset="1"/>
</radialGradient>
<radialGradient id="paint4_radial_790_7926" cx="0" cy="0" r="1" gradientUnits="userSpaceOnUse" gradientTransform="translate(10.0903 18.4982) rotate(92.2906) scale(79.1283 168.527)">
<stop stop-color="#9C9C9C"/>
<stop offset="0.11" stop-color="#9C9C9C"/>
<stop offset="0.23" stop-color="#999999"/>
<stop offset="0.31" stop-color="#979797"/>
<stop offset="0.67" stop-color="#8F8F8F"/>
</radialGradient>
<radialGradient id="paint5_radial_790_7926" cx="0" cy="0" r="1" gradientUnits="userSpaceOnUse" gradientTransform="translate(93.7879 30.2501) rotate(73.7399) scale(38.0191 30.9171)">
<stop stop-color="#B5B5B5"/>
<stop offset="1" stop-color="#B5B5B5" stop-opacity="0"/>
</radialGradient>
<clipPath id="clip0_790_7926">
<rect width="100" height="100" fill="white"/>
</clipPath>
</defs>
</svg>
