<svg width="100" height="100" viewBox="0 0 100 100" fill="none" xmlns="http://www.w3.org/2000/svg">
<g clip-path="url(#clip0_790_7941)">
<path d="M36.5 21.4999C23.5 19.0999 13.1 21.5999 8.99999 28.6999C5.99999 34.0999 6.79999 41.0999 11.2 48.6999C11.3 48.8999 11.4 48.9999 11.5 49.0999C11.6 49.1999 11.8 49.2999 12 49.2999C12.2 49.2999 12.3 49.3999 12.5 49.2999C12.7 49.2999 12.8 49.1999 13 49.0999C13.3 48.8999 13.5 48.5999 13.6 48.2999C13.7 47.9999 13.6 47.5999 13.5 47.2999C9.59999 40.4999 8.79999 34.3999 11.4 30.0999C14.8 24.1999 24 21.9999 36.1 24.1999C36.3 24.1999 36.5 24.1999 36.8 24.1999C37 24.0999 37.2 23.9999 37.4 23.8999C37.6 23.6999 37.7 23.4999 37.7 23.2999C37.8 23.0999 37.8 22.8999 37.7 22.5999C37.6 22.2999 37.5 22.0999 37.3 21.8999C37.1 21.6999 36.8 21.4999 36.5 21.4999ZM18 57.7999C23.3 63.5999 30.1 69.0999 38 73.5999C57 84.4999 77.1 87.4999 87.1 80.6999C87.4 80.4999 87.6 80.1999 87.6 79.7999C87.7 79.4999 87.6 79.0999 87.4 78.7999C87.2 78.4999 86.9 78.2999 86.6 78.1999C86.3 78.0999 85.9 78.1999 85.6 78.3999C76.7 84.4999 57.5 81.6999 39.4 71.1999C31.7 66.8999 25 61.5999 19.9 55.9999C19.7 55.7999 19.5 55.6999 19.2 55.5999C18.9 55.4999 18.7 55.4999 18.4 55.5999C18.2 55.6999 18 55.7999 17.9 55.9999C17.8 56.1999 17.6 56.3999 17.6 56.5999C17.5 56.7999 17.5 56.9999 17.6 57.2999C17.7 57.4999 17.8 57.6999 18 57.7999Z" fill="#A2A2A2"/>
<path d="M83.7999 56.2002C92.3999 46.1002 95.2999 35.9002 91.1999 28.8002C88.1999 23.6002 81.7999 20.8002 73.2999 20.7002C72.8999 20.7002 72.5999 20.8002 72.2999 21.1002C72.1999 21.3002 71.9999 21.7002 71.9999 22.0002C71.9999 22.3002 72.0999 22.5002 72.1999 22.7002C72.2999 22.9002 72.5999 23.1002 72.7999 23.2002C72.9999 23.3002 73.0999 23.3002 73.2999 23.3002C80.8999 23.4002 86.3999 25.8002 88.8999 30.1002C92.2999 36.0002 89.5999 45.1002 81.6999 54.4002C81.5999 54.5002 81.4999 54.7002 81.3999 54.9002C81.2999 55.1002 81.2999 55.2002 81.2999 55.4002C81.2999 55.6002 81.3999 55.8002 81.3999 55.9002C81.4999 56.1002 81.5999 56.2002 81.6999 56.3002C81.7999 56.4002 81.9999 56.5002 82.1999 56.6002C82.3999 56.7002 82.4999 56.7002 82.6999 56.7002C82.8999 56.7002 82.9999 56.6002 83.1999 56.5002C83.5999 56.5002 83.6999 56.3002 83.7999 56.2002ZM61.8999 21.9002C54.1999 23.6002 45.8999 26.8002 37.9999 31.4002C18.3999 42.7002 5.6999 59.4002 7.3999 71.4002C7.3999 71.6002 7.4999 71.7002 7.5999 71.9002C7.6999 72.1002 7.7999 72.2002 7.9999 72.3002C8.0999 72.4002 8.2999 72.5002 8.4999 72.5002C8.6999 72.5002 8.8999 72.6002 8.9999 72.5002C9.1999 72.5002 9.2999 72.4002 9.4999 72.3002C9.6999 72.2002 9.7999 72.1002 9.8999 71.9002C9.9999 71.8002 10.0999 71.6002 10.0999 71.4002C10.0999 71.2002 10.0999 71.0002 10.0999 70.9002C8.4999 60.3002 20.5999 44.5002 39.2999 33.7002C46.9999 29.3002 54.8999 26.1002 62.3999 24.5002C62.6999 24.4002 62.9999 24.2002 63.1999 23.9002C63.3999 23.6002 63.3999 23.3002 63.3999 22.9002C63.2999 22.6002 63.0999 22.3002 62.7999 22.1002C62.4999 22.0002 62.1999 21.9002 61.8999 21.9002Z" fill="#A2A2A2"/>
<path d="M30.1 79.8001C34.6 92.3001 41.9 100 50.1 100C56.1 100 61.7 95.9001 66 88.7001C66.1 88.5001 66.2 88.4001 66.2 88.2001C66.2 88.0001 66.2 87.8001 66.2 87.7001C66.1 87.5001 66 87.3001 65.9 87.1001C65.8 86.9001 65.6 86.8001 65.3 86.7001C65.1 86.6001 64.9 86.6001 64.6 86.6001C64.4 86.6001 64.2 86.7001 64 86.9001C63.9 87.0001 63.7 87.1001 63.7 87.3001C59.8 93.8001 55 97.3001 50.1 97.3001C43.3 97.3001 36.7 90.4001 32.6 78.9001C32.5 78.7001 32.5 78.6001 32.3 78.4001C32.2 78.3001 32 78.2001 31.9 78.1001C31.7 78.0001 31.6 78.0001 31.4 78.0001C31.2 78.0001 31 78.0001 30.9 78.1001C30.7 78.2001 30.6 78.3001 30.4 78.4001C30.3 78.5001 30.2 78.7001 30.1 78.8001C30 79.0001 30 79.1001 30 79.3001C30.1 79.5001 30.1 79.7001 30.1 79.8001ZM71 77.4001C73.3 70.0001 74.6 61.5001 74.6 52.6001C74.6 30.4001 66.8 11.3001 55.8 6.3001C55.5 6.2001 55.1 6.2001 54.8 6.3001C54.4 6.4001 54.1 6.7001 54 7.0001C53.9 7.3001 53.8 7.7001 54 8.0001C54.1 8.3001 54.4 8.6001 54.7 8.7001C64.6 13.1001 71.9 31.2001 71.9 52.5001C71.9 61.1001 70.7 69.4001 68.5 76.5001C68.4 76.7001 68.4 76.8001 68.4 77.0001C68.4 77.2001 68.5 77.4001 68.5 77.5001C68.6 77.7001 68.8 77.9001 69 78.1001C69.2 78.3001 69.5 78.3001 69.8 78.3001C70.1 78.3001 70.3 78.2001 70.5 78.0001C70.8 77.9001 70.9 77.6001 71 77.4001ZM96.3 76.1001C96.3 75.3001 96.1 74.4001 95.8 73.6001C95.5 72.8001 95 72.1001 94.4 71.5001C93.8 70.9001 93.1 70.4001 92.3 70.1001C91.5 69.8001 90.7 69.6001 89.8 69.6001C89 69.6001 88.1 69.8001 87.3 70.1001C86.5 70.4001 85.8 70.9001 85.2 71.5001C84.6 72.1001 84.1 72.8001 83.8 73.6001C83.5 74.4001 83.3 75.2001 83.3 76.1001C83.3 77.8001 84 79.4001 85.2 80.6001C86.4 81.8001 88 82.5001 89.7 82.5001C91.4 82.5001 93 81.8001 94.2 80.6001C95.6 79.4001 96.2 77.8001 96.3 76.1001ZM93.6 76.1001C93.6 77.1001 93.2 78.0001 92.5 78.7001C91.8 79.4001 90.9 79.8001 89.9 79.8001C89.2 79.8001 88.4 79.6001 87.8 79.2001C87.2 78.8001 86.7 78.2001 86.4 77.5001C86.1 76.8001 86 76.1001 86.2 75.3001C86.3 74.6001 86.7 73.9001 87.2 73.4001C87.7 72.9001 88.4 72.5001 89.1 72.4001C89.8 72.3001 90.6 72.3001 91.3 72.6001C92 72.9001 92.6 73.4001 93 74.0001C93.4 74.6001 93.6 75.3001 93.6 76.1001ZM10.4 82.5001C11.2 82.5001 12.1 82.3001 12.9 82.0001C13.7 81.7001 14.4 81.2001 15 80.6001C15.6 80.0001 16.1 79.3001 16.4 78.5001C16.7 77.7001 16.9 76.9001 16.9 76.0001C16.9 75.2001 16.7 74.3001 16.4 73.5001C16.1 72.7001 15.6 72.0001 15 71.4001C14.4 70.8001 13.7 70.3001 12.9 70.0001C12.1 69.7001 11.3 69.5001 10.4 69.5001C9.6 69.5001 8.7 69.7001 7.9 70.0001C7.1 70.3001 6.4 70.8001 5.8 71.4001C5.2 72.0001 4.7 72.7001 4.4 73.5001C4.2 74.4001 4 75.2001 4 76.1001C4 76.9001 4.2 77.8001 4.5 78.6001C4.8 79.4001 5.3 80.1001 5.9 80.7001C6.5 81.2001 7.2 81.7001 8 82.0001C8.7 82.3001 9.6 82.5001 10.4 82.5001ZM10.4 79.8001C9.4 79.8001 8.5 79.4001 7.8 78.7001C7.1 78.0001 6.7 77.0001 6.7 76.1001C6.7 75.1001 7.1 74.2001 7.8 73.5001C8.5 72.8001 9.5 72.4001 10.4 72.4001C11.3 72.4001 12.3 72.8001 13 73.5001C13.7 74.2001 14.1 75.2001 14.1 76.1001C14.1 77.1001 13.7 78.0001 13 78.7001C12.4 79.4001 11.4 79.8001 10.4 79.8001Z" fill="#A2A2A2"/>
<path d="M50.2 12.7999C51.5 12.7999 52.7 12.3999 53.8 11.6999C54.9 10.9999 55.7 9.9999 56.2 8.7999C56.6 7.7999 56.8 6.7999 56.7 5.6999C56.6 4.6999 56.2 3.5999 55.6 2.7999C55 1.8999 54.2 1.1999 53.3 0.699902C52.4 0.199902 51.3 -0.100098 50.3 -0.100098C49 -0.100098 47.8 0.299902 46.7 0.999902C45.6 1.6999 44.8 2.6999 44.3 3.8999C43.8 5.0999 43.7 6.3999 43.9 7.5999C44.1 8.7999 44.8 9.9999 45.7 10.8999C46.3 11.4999 47 11.9999 47.8 12.2999C48.5 12.6999 49.3 12.7999 50.2 12.7999ZM50.2 10.0999C49.5 10.0999 48.7 9.8999 48.1 9.4999C47.5 9.0999 47 8.4999 46.7 7.7999C46.5 7.2999 46.4 6.8999 46.4 6.3999C46.4 5.8999 46.5 5.3999 46.7 4.9999C46.9 4.4999 47.2 4.0999 47.5 3.7999C47.8 3.4999 48.3 3.1999 48.7 2.9999C49.2 2.7999 49.8 2.6999 50.3 2.6999C50.9 2.6999 51.4 2.8999 51.9 3.0999C52.4 3.2999 52.8 3.6999 53.1 4.1999C53.4 4.5999 53.7 5.1999 53.8 5.6999C53.9 6.1999 53.9 6.7999 53.8 7.2999C53.7 7.7999 53.4 8.2999 53.1 8.7999C52.7 9.1999 52.3 9.5999 51.8 9.7999C51.3 9.9999 50.7 10.0999 50.2 10.0999ZM51.2 57.0999C50 57.3999 48.7 57.0999 47.7 56.4999C46.9 55.9999 46.3 55.2999 46 54.3999C45.6 53.5999 45.5 52.5999 45.7 51.6999C45.9 50.7999 46.3 49.9999 46.9 49.2999C47.5 48.5999 48.4 48.1999 49.3 47.9999C50.5 47.7999 51.7 47.9999 52.8 48.6999C53.8 49.3999 54.5 50.3999 54.8 51.5999C55.1 52.7999 54.8 53.9999 54.2 55.0999C53.4 56.0999 52.3 56.7999 51.2 57.0999Z" fill="#A2A2A2"/>
</g>
<defs>
<clipPath id="clip0_790_7941">
<rect width="100" height="100" fill="white"/>
</clipPath>
</defs>
</svg>
