<svg width="100" height="100" viewBox="0 0 100 100" fill="none" xmlns="http://www.w3.org/2000/svg">
<g clip-path="url(#clip0_790_8004)">
<path d="M29.9 84.4C26.1 81.4 22 78.5 19.3 74.5C13.4 67.4 8.90001 59.1 5.80001 50.4C4.00001 44.8 3.30001 38.8 0.900006 33.3C-1.59999 29.4 1.30001 25.1 5.60001 23.8C7.50001 23.4 10.9 21.6 6.80001 22.9C3.10001 25.6 2.80001 20.5 6.50001 20.1C9.10001 19.8 10 17.7 9.10001 15.8C6.40001 14 15.8 12 11 9.39999C6.10001 4.09999 17.9 3.09999 15 9.09999C14.3 13.7 23.3 8.19999 21.2 13.6C23.3 16.2 29.1 14.2 29 17.8C32.1 18 33.1 20.6 36 20.8C39 22.2 44.4 23.2 45.4 26.6C42.4 29 35.5 21.7 35.2 28.3C36.1 37.9 35.9 47.8 39.4 57C41.1 62.5 45.1 66.9 48.7 71.2C52.2 75.4 56.9 78.4 61.7 80.9C65.9 82.9 70.5 84.2 75.1 85C77 83.6 80.3 78.3 83.2 80.5C83.3 83 77.4 85.8 82.9 85.5C86.1 84.5 88.4 88 91 84.9C93.5 87.8 101.2 83 99.4 89C97 90.5 93.6 89.6 91.2 91.7C87.3 89.8 84.2 93.4 79.9 93C75.1 93.9 70.2 94.2 65.4 94.2C57.4 93.6 49.3 93.3 41.7 90.5C37.8 89.3 33.6 86.9 29.9 84.4ZM36.6 87.3C40.8 89.1 44.8 91 49.4 91.6C56.6 92.6 64.1 94.2 71.4 92.7C68.1 91.2 64.7 93.3 61.4 91.6C57.5 92.4 53.2 91.4 49.2 90.9C44.7 88.9 39.7 87.5 35.5 84.9C30.2 83 38.3 87.4 39.7 87.8C43 89.7 36 86.8 35.1 86C32.3 84.4 32 84.8 34.8 86.4C35.4 86.7 36 87.1 36.6 87.3ZM28.7 81.7C32.7 83.2 28.7 78.9 26.8 79.1C26 77.7 23.7 76.8 25.3 76C22.4 77 22.2 72.1 20.8 72.8C17.7 71.8 19.6 68.3 15.9 66.2C15.6 64 12.2 62 11.2 58.6C10.7 57 7.40001 52 9.50001 56.6C11.2 61.1 14.3 64.9 16.8 68.7C18.8 72.3 21.1 76.1 24.7 78.4C25.8 79.6 27 81.4 28.7 81.7ZM17 69C17.2 68.4 17.8 70.3 17 69V69ZM33.5 83.5C32.2 83 34.4 83.1 33.5 83.5V83.5ZM35.7 84.3C34.7 85 35.5 83.2 35.7 84.3V84.3ZM38.5 85.5C36.4 84.7 39.8 84.2 38.5 85.5V85.5ZM43.2 88.1C40.6 87.7 44 86.9 43.2 88.1V88.1ZM34.1 81.8C31.5 81.8 36.2 80.5 34.1 81.8V81.8ZM36.2 82.8C35.5 83.1 36.1 82.1 36.2 82.8V82.8ZM46.5 89.3C48.2 90.3 56.2 91.6 51.1 89.7C50.3 89.9 41.8 87.3 46.5 89.3ZM30.1 76.5C27.6 75.8 30 75.8 30.1 76.5V76.5ZM34.9 79.3C32.3 78.7 36.2 78.5 34.9 79.3V79.3ZM39 81.8C36.1 81.1 40.7 81.1 39 81.8V81.8ZM28.2 74.4C30.1 75.9 36 74.6 31.2 73.5C29 72.3 24 71.5 27.4 74.2L28.2 74.4ZM41.7 82.6C38.3 81.9 42.5 81.3 41.7 82.6V82.6ZM37.6 79.4C42.3 80.7 33.6 76.4 36.4 78.9L37 79.2L37.6 79.4ZM45.8 84.1C41.8 83.5 50.3 84.2 45.8 84.1V84.1ZM26.5 71.8C25.3 71.9 26.3 71 26.5 71.8V71.8ZM53.4 88.4C52 89.5 53.5 86.9 53.4 88.4V88.4ZM34.1 76.5C32.7 76.5 33.9 75.7 34.1 76.5V76.5ZM26.9 71.3C23.4 70.1 29.5 71.1 26.9 71.3V71.3ZM18.3 65.7C15.5 63.5 18 64.5 18.3 65.7V65.7ZM40.8 80C40.4 79.5 40.6 80.2 40.8 80V80ZM54.9 88.6C54.1 89 54.8 87.8 54.9 88.6V88.6ZM39.6 78.8C37.4 78.4 39.8 77.7 39.6 78.8V78.8ZM29.1 72.1C26.1 70.8 31.1 71.9 29.1 72.1V72.1ZM46.8 83.1C43.9 82.5 49.8 81.9 46.8 83.1V83.1ZM37.6 76.9C41 77.3 33.5 74.6 36.8 76.6L37.6 76.9ZM49.6 84.2C52.8 82.3 51.8 88.7 55.1 84.7C58.4 82.3 52.3 87.6 56.3 85.1C59.2 83.2 63.5 86 66.2 87C68.1 86.9 70 88.7 72 87.6C75.8 86.6 64.5 86.1 67.5 84.2C64 85.2 61.4 83 59.6 80.7C55.7 79.8 51.1 77.8 49.1 74.3C48.3 73 50.3 74.5 48.4 72.3C46 70.2 44.8 67.8 43.2 65.2C41.3 64.2 41.1 61.2 40.9 65.1C40.9 62.6 38.6 61 38 61.7C38 59.3 40.5 60.5 38.7 58.8C38.3 56.3 37.1 53.8 36.7 51C36.1 49.7 36.6 46.8 34.7 49.8C34 53 34.5 45.9 35.5 48.2C36.9 45.8 35 46.1 34.9 46.4C35.8 44.4 35.5 41.5 34.7 42.6C35.2 40.4 35.5 34.7 34 35.7C34.9 33.4 35.7 25.4 31.8 28.5C30.2 28.5 27.4 29.1 26.1 29.7C30.2 32 25.7 30.5 24 30.2C23.8 32.3 22.1 31.4 20.1 31.4C23.4 31.8 18.5 34.8 16.6 33.6C14.1 34.8 18.7 37.7 16.6 38.6C16.9 40 12.8 38.1 13.1 41.3C10.7 40.3 12.8 45 14 43.4C18.1 44.5 16.9 47 17 49.4C16.3 50.8 13.7 46.1 16.4 46.4C14.3 43 14.1 45.2 12.3 46.8C11.9 46.9 16.8 49.1 13.7 50.1C16.4 50.5 16.5 52.9 17 54.4C18.6 56.1 18.3 52.5 20.2 54.6C19 52.8 13.7 49.5 17.9 50.5C17.9 48.7 17.1 47.2 18.4 47.2C19.7 44.9 17 53 20 50C20.8 49.6 21 47.7 22.5 50.2C24.6 52.3 23.3 53.8 20.3 51.9C20.8 53.7 24.3 54.3 23.6 57.2C24.3 59.7 25.2 58.8 26.1 58.6C26.8 61 27.1 59.2 27.2 58.1C30.2 58.7 29.5 60.5 30.4 61.8C32.5 62.7 27.4 55.5 31 59.6C34.7 63 32.4 64.4 29 63.8C31.1 63.6 31.8 66.7 34.5 66.6C36.9 67.8 38.6 72.2 34.4 70.3C33 69 27.8 67.4 32 69.9C35.9 71.7 38.9 72.8 42.7 75C45.4 76.9 46.5 79.1 47.5 79.5C45.3 80.6 40.7 78.6 44.1 78.1C42 77.7 39.7 76.7 41.7 79.3C43.4 80.7 47.7 80.6 48.5 80.7C47.8 82.2 46.7 82.3 48.5 82.4C46.7 83.5 49.4 83.6 49.6 84.2ZM45.5 72.5C44.3 71.2 43.9 68.8 45.3 70.9C45.9 71.2 47.4 74.9 45.5 72.5ZM59 81.1C59 81.7 59.7 81.1 59 81.1V81.1ZM43.5 69.4C43.5 67.4 44 70.9 43.5 69.4V69.4ZM42.2 67.6C40.6 64.6 44.1 68.4 42.2 67.6V67.6ZM25.9 56.4C26.4 57.9 26.8 56.1 25.9 56.4V56.4ZM38.9 63.4C39.4 61.3 39.5 65.1 38.9 63.4V63.4ZM29.7 57C29.1 55.9 31.1 58.1 29.7 57V57ZM37.6 59.5C36.1 56.2 38.6 57.7 37.9 60L37.6 59.5ZM24 50.5C23.3 49.4 22.3 46.3 22.6 45.3C22.9 46.9 26 52.1 24.1 47.5C22 43.6 26.6 48.8 27 49.7C27.2 50.7 25.7 49.4 26.7 51.7C25 49.1 25.7 53.1 24 50.5ZM19.9 47.6C20 45.1 20.8 49.3 19.9 47.6V47.6ZM21.7 48.3C22.6 46.4 23.3 50.9 21.7 48.3V48.3ZM17.2 44.8C15.6 43.3 14.5 41.8 17.3 43.8C18.4 43.8 14.9 40.6 17.6 42.8C20.3 43.3 18.9 47.3 17.2 44.8ZM19.6 44.7C20.1 45.6 20.5 43.8 19.6 44.7V44.7ZM21.1 45.2C19.7 42.6 22.7 46.3 21.1 45.2V45.2ZM18.2 42.4C13.7 38.4 23.9 44.5 18.9 43.1L18.2 42.4ZM31.1 49.9C29.1 48.7 30.6 41.6 31.2 46.5C33.1 45.9 31.1 49 32.5 49C32.4 51 31.7 51.7 31.1 49.9ZM35.9 52.8C36.1 50.6 36.3 54.2 35.9 52.8V52.8ZM35.1 51.9C35.1 53 35.3 51 35.1 51.9V51.9ZM19 41.1C16.1 37.1 27.4 45.2 20.9 42.1C20.2 41.9 19.4 41.9 19 41.1ZM28.3 46C28 42.6 28.9 46.5 28.3 46V46ZM35.3 50.5C35.3 51.7 35.8 48.5 35.3 50.5V50.5ZM19.5 39.6C21.2 39.2 26.7 42.6 21.7 40.6C21.1 39.9 19.9 40.2 19.5 39.6ZM34.3 46.9C34.5 43.4 35.3 44.8 34.3 47.4V46.9ZM20.8 38.3C21.5 37.3 18.9 33.6 21.2 37C22.2 37.8 24 38.3 22.4 38.6C24.9 40.9 21.7 39.3 20.8 38.3ZM33.6 45.9C34 48.2 34.1 41.9 33.6 45.9V45.9ZM19.3 34.7C19.6 35.4 19.8 34.5 19.3 34.7V34.7ZM22.6 36.7C23.5 34.9 24.2 38.7 22.6 36.7V36.7ZM32.1 42C32.1 41.3 32.2 43 32.1 42V42ZM31.5 40.7C30.2 37.5 32.7 42.5 31.5 40.7V40.7ZM30.7 38.6C30.5 37.3 31.5 40.3 30.7 38.6V38.6ZM32 36.5C31.1 34.9 33.1 29.5 33.4 32.9C32.5 35.5 33.1 37 33.8 33.5C35 30.7 33.5 38.9 32 36.5ZM33.4 28.5C33.5 29.1 33.8 28 33.4 28.5V28.5ZM31.1 72.7C30.6 72.2 31.2 73 31.1 72.7V72.7ZM35.8 75C38.4 75.7 38.4 74.6 36 74.3C34.7 73.1 30.8 71.9 34.3 74.2C34.6 74.8 35.3 74.8 35.8 75ZM26.6 69C28 70.1 31.9 72 28.6 69.4C29.7 68.1 26.5 67.4 27.5 66.5C24.7 64.8 25.3 65 27.3 65C24 63.5 27.8 63.6 27.6 62.9C26.3 62.6 21.3 60.7 24.2 63.1C21.2 61.6 23.5 63.7 22.6 63.5C19.5 62.7 25.4 65.9 22.1 65.1C23.9 66.5 26.9 68.7 22.9 66.6C22.4 67.2 25.8 68.4 26.6 69ZM31.5 71.8C28.6 69.4 37.3 73.7 31.5 71.8V71.8ZM56.2 86.8C55.4 87.7 56.3 85.6 56.2 86.8V86.8ZM58.8 87.8C60.2 86.5 58.9 89.9 61 87.5C61 85.8 60.9 84.7 58.5 86.8C57.8 87.2 57.5 88.8 58.8 87.8ZM18.4 62.5C15.4 60.8 18 60.8 18.4 62.5V62.5ZM21.1 64.2C17.5 62.7 20.1 62.6 21.1 64.2V64.2ZM36.5 73.6C38 74.9 43.4 74.6 38.3 73.8C37.6 72.6 33.6 72.9 36.5 73.6ZM57.8 86.7C55.5 87.6 60.1 84.7 57.8 86.7V86.7ZM62.6 90C61.6 90.3 62.6 89.4 62.6 90V90ZM62.6 89.1C60.1 89.3 65.2 86.4 62.6 89.1V89.1ZM11.7 56.9C9.50001 53.8 10.3 52.4 8.20001 49.8C7.80001 47.8 4.60001 43.4 6.50001 48.1C8.30001 50.8 8.90001 55.1 11.7 56.9ZM61.8 88.3C59.9 86.9 66.5 85.2 61.8 88.3V88.3ZM65.4 89.7C63.9 89.2 67.8 87.6 65.4 89.7V89.7ZM17.6 59C15.8 58.9 18.2 58 17.6 59V59ZM64.7 88.7C67 87.2 64.2 87.4 64.3 88.8L64.7 88.7ZM33.5 69.1C32.3 69.2 33.5 68.1 33.5 69.1V69.1ZM35.5 70.2C34.5 70.4 34.9 69 35.5 70.2V70.2ZM68.4 89.7C71.3 87.6 66.6 89.3 67.8 90.1L68.4 89.7ZM67.2 89.2C64.7 90.1 69.6 87.2 67.2 89.2V89.2ZM73 93C71 92.6 74.6 91.9 73 93V93ZM19 58.3C21.2 58.8 27.6 63.6 23.8 58.6C21.8 58 23 53.3 21 54.1C22.3 56.3 22.1 57.3 19.3 55.9C15.8 54.2 17.3 56.8 18 57.5C17.1 57.7 19.3 58.3 19 58.3ZM9.20001 50.5C9.60001 48.9 5.60001 41.7 7.30001 46.9C8.00001 48 7.90001 50.1 9.20001 50.5ZM27.2 61.6C26.1 60.7 27.2 61.5 27.2 61.6V61.6ZM30 62.3C27 61.6 30 60.6 30 62.3V62.3ZM53.6 77.2C51.9 77.2 53.2 76 53.6 77.2V77.2ZM54.8 78C54.1 78.1 54.6 77.4 54.8 78V78ZM64.2 83.9C63 83.8 65.1 83.3 64.2 83.9V83.9ZM14.1 51.8C11.4 51.1 16.7 50.8 14.1 51.8V51.8ZM51.6 75.4C49.9 75.8 51.5 73.7 51.6 75.4V75.4ZM13.1 49.4C11.6 49 14.8 48.8 13.1 49.4V49.4ZM17.9 51.7C17.4 51.9 17.9 51.2 17.9 51.7V51.7ZM76.6 87.7C78.7 87.3 83.6 88.8 84.4 87.1C81.8 87 75.4 85.3 75.1 87.5L75.7 87.6L76.6 87.7ZM19.4 52.1C18.1 52.1 19.5 50.4 19.4 52.1V52.1ZM6.80001 43.3C4.60001 42.8 6.20001 40.1 6.80001 43.3V43.3ZM9.80001 44.1C7.00001 43.2 9.80001 43.1 9.80001 44.1V44.1ZM11.5 44.9C11 44.5 11.1 45.5 11.5 44.9V44.9ZM22.4 51.9C21.2 51.6 22.9 51.4 22.4 51.9V51.9ZM10.4 43C6.90001 42.7 10.1 40.6 10.4 43V43ZM4.20001 39C3.60001 39.4 4.10001 37.9 4.20001 39V39ZM5.10001 38.3C4.30001 38.5 5.00001 37 5.10001 38.3V38.3ZM10.2 41.4C12.4 40.6 6.30001 39.7 9.80001 41.2L10.2 41.4ZM78.3 83.4C76.5 83 79.6 82.1 78.3 83.4V83.4ZM86.5 87.7C85.1 87.9 87 86 86.5 87.7V87.7ZM10.7 38.7C9.00001 39 10.9 37.1 10.7 38.7V38.7ZM3.50001 33.8C3.10001 31.6 3.20001 27.7 6.90001 29C1.90001 30 10.3 35.2 9.30001 31.1C11.4 31.2 13.4 29.9 12.3 31.9C16.4 31.4 19.3 27.9 23.2 28.4C26.3 28 29.7 27.7 33 26.4C35.7 26.2 38.4 23.3 36.9 21.5C33.2 21.2 29.3 21.7 25.1 22.5C20.5 23.5 16.4 25.3 11.7 26C7.20001 26.6 12.6 27.7 11.3 27.9C9.00001 28.7 14.1 29.3 11 30.1C9.10001 29.7 7.10001 29.1 7.90001 27.1C3.60001 27.7 -0.199994 29.4 3.20001 33.8H3.50001ZM13.9 28.6C14.9 24.9 19.3 31.7 15.6 29.1C15.1 28.7 14.3 28.4 13.9 28.6ZM14.1 26.7C14.9 27.4 15.5 25.7 14.1 26.7V26.7ZM15.9 26.8C16 25.1 20.1 27.7 16.6 27.4L15.9 26.8ZM18.5 25.8C18.7 26.7 19.4 24.7 18.5 25.8V25.8ZM19.1 25.3C20.6 23.4 27.8 24.1 22.6 25.1C21.2 24.1 20.1 25.8 19.1 25.3ZM28.5 23.9C28.3 18.8 33.2 25.7 28.5 23.9V23.9ZM31.2 23.9C32.2 21.4 35 22.9 31.6 23.4C31.7 23.6 31.5 24.7 31.2 23.9ZM9.70001 37.4C6.60001 35.8 12.6 35.6 9.70001 37.4V37.4ZM11.8 38C9.60001 37.5 12.8 36.9 11.8 38V38ZM5.50001 33.5C3.50001 33 7.10001 32.2 5.50001 33.5V33.5ZM91.3 87.2C90.1 87.9 91.4 85.7 91.3 87.2V87.2ZM82.6 81.2C81.5 81.4 82.9 79.5 82.6 81.2V81.2ZM93.7 87.8C96 87.8 100.7 87.1 95.7 87.1C94.9 87.2 91.1 87.1 93.7 87.8ZM13.7 36.9C15.6 36.8 16.6 34.8 13.3 34.9C8.20001 34.4 17.8 36.7 12.6 36C12 36.5 13.7 37.1 13.7 36.9ZM15.4 37.8C14.8 38.4 15.2 36.6 15.4 37.8V37.8ZM17.3 32.5C16.2 32.3 18.1 31.5 17.3 32.5V32.5ZM11.1 22.1C14.5 21 19 19.7 20.6 22.7C19 20.8 19.9 18.8 21.5 21.7C23.7 24.6 24.7 20.4 23.3 19.4C24.9 21.4 26.7 22.3 24.4 19.5C26.9 16.4 19.3 19.9 17.6 19.9C16.7 20.2 8.90001 21.8 11.1 22.1ZM13 18.3C14.9 16.9 19.6 19.2 16.6 16.9C16.4 16.6 10 18.6 13 18.3ZM20 18.6C22.2 18.7 19 15.6 21.7 17C21.3 15.6 18.6 15.3 17.3 14.7C16.6 16 18.8 18.6 20 18.6ZM14.3 12.3C12.9 12.8 15 11.2 14.3 12.3V12.3ZM17.1 13C20.7 12.5 16.2 11.4 16.4 13H17.1ZM11.8 8.79999C9.30001 5.49999 16.6 9.39999 14 5.89999C11.8 4.09999 9.70001 7.79999 11.8 8.79999ZM44.4 26.4C45.6 24.3 39.6 23.6 43.6 25.7C44 25.7 43.9 26.5 44.4 26.4Z" fill="black"/>
</g>
<defs>
<clipPath id="clip0_790_8004">
<rect width="100" height="100" fill="white"/>
</clipPath>
</defs>
</svg>
