<svg width="100" height="100" viewBox="0 0 100 100" fill="none" xmlns="http://www.w3.org/2000/svg">
<g clip-path="url(#clip0_790_10177)">
<path d="M93.1 40.9C94.3 37.5 94.7 34 94.3 30.6C93.9 27.2 92.7 23.7 91.2 20.6C88.4 15.9 84.3 12.2 79.6 10C74.6 7.8 69.3 7.2 64 8.4C61.5 5.9 58.7 3.7 55.6 2.2C52.4 0.6 48.7 0 45.2 0C39.9 0 34.6 1.6 30.2 4.7C25.8 7.8 22.7 12.2 21.1 17.2C17.3 18.1 14.2 19.7 11.1 21.6C8.3 23.8 6.1 26.6 4.2 29.4C1.4 34.1 0.499998 39.4 1.1 44.7C1.8 50 4 55 7.4 59.1C6.2 62.5 5.8 66 6.2 69.4C6.6 72.8 7.8 76.3 9.3 79.4C12.1 84.1 16.2 87.8 20.9 90C25.9 92.2 31.2 92.8 36.5 91.6C39 94.1 41.8 96.3 44.9 97.8C48 99.3 51.8 100 55.2 100C60.5 100 65.8 98.4 70.2 95.3C74.6 92.2 77.7 87.8 79.3 82.8C82.7 82.2 86.2 80.6 89 78.4C91.8 76.2 94.3 73.7 95.9 70.6C98.7 65.9 99.7 60.6 99 55.3C98.3 50 96.5 45 93.1 40.9ZM55.6 93.4C50.6 93.4 46.8 91.8 43.4 89C43.4 89 43.7 88.7 44 88.7L64 77.1C64.6 76.8 64.9 76.5 65.2 75.9C65.5 75.3 65.5 75 65.5 74.3V46.2L73.9 51.2V74.3C74.3 85.3 65.6 93.4 55.6 93.4ZM15.2 76.2C13 72.4 12.1 68.1 13 63.7C13 63.7 13.3 64 13.6 64L33.6 75.6C34.2 75.9 34.5 75.9 35.2 75.9C35.9 75.9 36.4 75.9 36.8 75.6L61.2 61.5V71.2L40.9 83.1C36.5 85.6 31.5 86.2 26.8 85C21.8 83.7 17.7 80.6 15.2 76.2ZM9.9 32.8C12.1 29 15.5 26.2 19.6 24.7V25.3V48.4C19.6 49 19.6 49.6 19.9 50C20.2 50.6 20.5 50.9 21.1 51.2L45.5 65.3L37.1 70.3L17.1 58.7C12.7 56.2 9.6 52.1 8.3 47.5C7 42.9 7.4 37.2 9.9 32.8ZM79 48.7L54.6 34.7L63 29.7L83 41.3C86.1 43.2 88.6 45.7 90.2 48.8C91.8 51.9 92.7 55.4 92.4 59.1C92.1 62.5 90.8 66 88.6 68.8C86.4 71.6 83.6 73.8 80.2 75V51.2C80.2 50.6 80.2 50 79.9 49.6C79.9 49.7 79.6 49.1 79 48.7ZM87.4 36.2C87.4 36.2 87.1 35.9 86.8 35.9L66.8 24.3C66.2 24 65.9 24 65.2 24C64.5 24 64 24 63.6 24.3L39.3 38.4V28.7L59.6 16.8C62.7 14.9 66.2 14.3 69.9 14.3C73.3 14.3 76.8 15.5 79.9 17.7C82.7 19.9 85.2 22.7 86.5 25.8C87.8 28.9 88.1 32.8 87.4 36.2ZM34.9 53.7L26.5 48.7V25.3C26.5 21.9 27.4 18.1 29.3 15.3C31.2 12.2 34 10 37.1 8.4C40.2 6.8 44 6.2 47.4 6.9C50.8 7.2 54.3 8.8 57.1 11C57.1 11 56.8 11.3 56.5 11.3L36.5 22.9C35.9 23.2 35.6 23.5 35.3 24.1C35 24.7 35 25 35 25.7V53.7H34.9ZM39.3 43.7L50.2 37.5L61.1 43.7V56.2L50.2 62.4L39.3 56.2V43.7Z" fill="#2B2B2B"/>
</g>
<defs>
<clipPath id="clip0_790_10177">
<rect width="100" height="100" fill="white"/>
</clipPath>
</defs>
</svg>
