<svg width="100" height="100" viewBox="0 0 100 100" fill="none" xmlns="http://www.w3.org/2000/svg">
<path fill-rule="evenodd" clip-rule="evenodd" d="M50 75.7C77.6 75.7 100 64.4 100 50.4C100 36.4 77.6 25.1 50 25.1C22.4 25 0 36.3 0 50.3C0 64.3 22.4 75.7 50 75.7Z" fill="#818181"/>
<path fill-rule="evenodd" clip-rule="evenodd" d="M60.1 58.5L62.6 45.7C63.2 42.8 62.7 40.7 61.2 39.3C59.8 38 57.3 37.3 53.8 37.3H49.5L50.7 31C50.7 30.9 50.7 30.8 50.7 30.6C50.7 30.5 50.6 30.4 50.5 30.3C50.4 30.2 50.3 30.1 50.2 30.1C50.1 30 50 30 49.9 30H44C43.6 30 43.3 30.3 43.2 30.7L40.6 44.3C40.4 42.8 39.8 41.5 38.8 40.4C37.1 38.4 34.3 37.4 30.6 37.4H19.1C18.7 37.4 18.4 37.7 18.3 38.1L13 65.5C13 65.7 13 66 13.2 66.2C13.4 66.4 13.6 66.5 13.8 66.5H19.8C20.2 66.5 20.5 66.2 20.6 65.8L21.9 59.2H26.3C28.6 59.2 30.6 58.9 32.1 58.4C33.7 57.9 35.1 57 36.4 55.8C37.4 54.9 38.3 53.8 38.9 52.7L37.8 58.2C37.8 58.4 37.8 58.7 38 58.9C38.2 59.1 38.4 59.2 38.6 59.2H44.5C44.9 59.2 45.2 58.9 45.3 58.5L48.2 43.4H52.3C54 43.4 54.5 43.7 54.7 43.9C54.8 44 55.1 44.5 54.8 46L52.4 58.1C52.4 58.2 52.4 58.3 52.4 58.5C52.4 58.6 52.5 58.7 52.6 58.8C52.7 58.9 52.8 59 52.9 59C53 59.1 53.1 59.1 53.2 59.1H59.2C59.4 59.1 59.6 59 59.7 58.9C60 58.9 60.1 58.7 60.1 58.5ZM32.6 48C32.2 49.9 31.5 51.3 30.5 52.1C29.5 52.9 27.8 53.3 25.6 53.3H23L24.9 43.4H28.3C30.8 43.4 31.8 43.9 32.2 44.4C32.9 45 33 46.2 32.6 48ZM85.1 40.4C83.4 38.4 80.6 37.4 76.9 37.4H65.4C65 37.4 64.7 37.7 64.6 38.1L59.3 65.5C59.3 65.7 59.3 66 59.5 66.2C59.7 66.4 59.9 66.5 60.1 66.5H66.1C66.5 66.5 66.8 66.2 66.9 65.8L68.2 59.2H72.6C74.9 59.2 76.9 58.9 78.4 58.4C80 57.9 81.4 57 82.7 55.8C83.8 54.8 84.6 53.7 85.3 52.6C86 51.4 86.4 50.1 86.7 48.7C87.4 45.2 86.9 42.4 85.1 40.4ZM79.3 48C78.9 49.9 78.2 51.3 77.2 52.1C76.2 52.9 74.5 53.3 72.3 53.3H69.7L71.6 43.4H75C77.5 43.4 78.5 43.9 78.9 44.4C79.5 45 79.6 46.2 79.3 48Z" fill="white"/>
<path fill-rule="evenodd" clip-rule="evenodd" d="M28.2 42.5999C30.5 42.5999 32 42.9999 32.7 43.8999C33.5 44.6999 33.6 46.1999 33.2 48.1999C32.8 50.2999 32 51.7999 30.8 52.6999C29.6 53.5999 27.8 54.0999 25.4 54.0999H21.8L24 42.5999H28.2ZM13.6 65.6999H19.6L21 58.3999H26.1C28.4 58.3999 30.2 58.1999 31.7 57.6999C33.2 57.1999 34.5 56.3999 35.7 55.2999C36.7 54.3999 37.5 53.3999 38.1 52.2999C38.7 51.1999 39.2 49.9999 39.4 48.5999C40 45.2999 39.6 42.7999 38 40.9999C36.4 39.1999 33.9 38.2999 30.4 38.2999H19L13.6 65.6999ZM43.8 30.8999H49.7L48.3 38.1999H53.6C56.9 38.1999 59.2 38.7999 60.5 39.8999C61.8 41.0999 62.1 42.8999 61.6 45.4999L59.1 58.2999H53.1L55.5 46.1999C55.8 44.7999 55.7 43.8999 55.2 43.3999C54.7 42.8999 53.7 42.5999 52.2 42.5999H47.5L44.4 58.2999H38.5L43.8 30.8999ZM74.8 42.5999C77.1 42.5999 78.6 42.9999 79.3 43.8999C80.1 44.6999 80.2 46.1999 79.8 48.1999C79.4 50.2999 78.6 51.7999 77.4 52.6999C76.2 53.5999 74.4 54.0999 72 54.0999H68.4L70.6 42.5999H74.8ZM60.3 65.6999H66.3L67.7 58.3999H72.8C75.1 58.3999 76.9 58.1999 78.4 57.6999C79.9 57.1999 81.2 56.3999 82.4 55.2999C83.4 54.3999 84.2 53.3999 84.8 52.2999C85.4 51.1999 85.9 49.9999 86.1 48.5999C86.7 45.2999 86.3 42.7999 84.7 40.9999C83.1 39.1999 80.6 38.2999 77.1 38.2999H65.6L60.3 65.6999Z" fill="black"/>
</svg>
