<svg width="100" height="100" viewBox="0 0 100 100" fill="none" xmlns="http://www.w3.org/2000/svg">
<g clip-path="url(#clip0_790_10313)">
<path d="M73.7999 19H78.5999C79.8999 19 80.9999 20 80.9999 21.4C80.9999 22.7 79.9999 23.8 78.5999 23.8H73.7999C72.4999 23.8 71.3999 22.8 71.3999 21.4C71.3999 20.1 72.4999 19 73.7999 19Z" fill="#979797"/>
<path d="M2.4 95.2H26.2C27.5 95.2 28.6 96.2 28.6 97.6C28.6 98.9 27.6 100 26.2 100H2.4C1 100 0 99 0 97.6C0 96.3 1 95.2 2.4 95.2Z" fill="#888888"/>
<path d="M59.5001 57.1001H73.8001C75.1001 57.1001 76.2001 58.1001 76.2001 59.5001C76.2001 60.8001 75.2001 61.9001 73.8001 61.9001H59.5001C58.2001 61.9001 57.1001 60.9001 57.1001 59.5001C57.1001 58.2001 58.2001 57.1001 59.5001 57.1001Z" fill="#9D9D9D"/>
<path d="M31.0001 57.1001H50.0001C51.3001 57.1001 52.4001 58.1001 52.4001 59.5001C52.4001 60.8001 51.4001 61.9001 50.0001 61.9001H31.0001C29.7001 61.9001 28.6001 60.9001 28.6001 59.5001C28.6001 58.2001 29.6001 57.1001 31.0001 57.1001Z" fill="#888888"/>
<path d="M2.4 57.1001H21.4C22.7 57.1001 23.8 58.1001 23.8 59.5001C23.8 60.8001 22.8 61.9001 21.4 61.9001H2.4C1.1 61.9001 0 60.9001 0 59.5001C0 58.2001 1 57.1001 2.4 57.1001Z" fill="#979797"/>
<path d="M2.4 76.2H26.2C27.5 76.2 28.6 77.2 28.6 78.6C28.6 79.9 27.6 81 26.2 81H2.4C1 81 0 79.9 0 78.6C0 77.2 1 76.2 2.4 76.2Z" fill="#9D9D9D"/>
<path d="M2.4 38.1001H26.2C27.5 38.1001 28.6 39.1001 28.6 40.5001C28.6 41.8001 27.6 42.9001 26.2 42.9001H2.4C1.1 42.9001 0 41.9001 0 40.5001C0 39.1001 1 38.1001 2.4 38.1001Z" fill="#9D9D9D"/>
<path d="M26.2001 9.5H73.8001C75.1001 9.5 76.2 10.5 76.2 11.9C76.2 13.2 75.2001 14.3 73.8001 14.3H26.2001C24.9001 14.3 23.8 13.3 23.8 11.9C23.8 10.6 24.9001 9.5 26.2001 9.5Z" fill="#BFBFBF"/>
<path d="M2.4 9.5H16.7C18 9.5 19.1 10.5 19.1 11.9C19.1 13.2 18.1 14.3 16.7 14.3H2.4C1.1 14.3 0 13.3 0 11.9C0 10.6 1 9.5 2.4 9.5Z" fill="#888888"/>
<path d="M21.4 85.7H26.2C27.5 85.7 28.6 86.7 28.6 88.1C28.6 89.4 27.6 90.5 26.2 90.5H21.4C20.1 90.5 19 89.5 19 88.1C19 86.8 20.1 85.7 21.4 85.7Z" fill="#BFBFBF"/>
<path d="M21.4 28.6001H26.2C27.5 28.6001 28.6 29.6001 28.6 31.0001C28.6 32.3001 27.6 33.4001 26.2 33.4001H21.4C20.1 33.4001 19 32.4001 19 31.0001C19 29.6001 20.1 28.6001 21.4 28.6001Z" fill="#979797"/>
<path d="M2.4 85.7H11.9C13.2 85.7 14.3 86.7 14.3 88.1C14.3 89.4 13.3 90.5 11.9 90.5H2.4C1.1 90.5 0 89.5 0 88.1C0 86.8 1 85.7 2.4 85.7Z" fill="#979797"/>
<path d="M2.4 28.6001H11.9C13.2 28.6001 14.3 29.6001 14.3 31.0001C14.3 32.3001 13.3 33.4001 11.9 33.4001H2.4C1 33.3001 0 32.3001 0 31.0001C0 29.6001 1 28.6001 2.4 28.6001Z" fill="#BFBFBF"/>
<path opacity="0.5" d="M64.3001 85.7H69C70.3 85.7 71.4001 86.7 71.4001 88.1C71.4001 89.4 70.4 90.5 69 90.5H64.2C62.9 90.5 61.8 89.5 61.8 88.1C61.9 86.8 63.0001 85.7 64.3001 85.7Z" fill="#D3D3D3"/>
<path opacity="0.5" d="M35.7001 85.7H54.7001C56 85.7 57.1 86.7 57.1 88.1C57.1 89.4 56.1 90.5 54.7001 90.5H35.7001C34.4001 90.5 33.3 89.5 33.3 88.1C33.3 86.8 34.4001 85.7 35.7001 85.7Z" fill="#D3D3D3"/>
<path opacity="0.5" d="M78.6 85.7H97.6C98.9 85.7 100 86.7 100 88.1C100 89.4 99 90.5 97.6 90.5H78.6C77.3 90.5 76.2 89.5 76.2 88.1C76.2 86.8 77.2 85.7 78.6 85.7Z" fill="#D3D3D3"/>
<path d="M40.5001 47.6001H78.6001C79.9001 47.6001 81.0001 48.6001 81.0001 50.0001C81.0001 51.4001 80.0001 52.4001 78.6001 52.4001H40.5001C39.2001 52.4001 38.1001 51.4001 38.1001 50.0001C38.1001 48.6001 39.1001 47.6001 40.5001 47.6001Z" fill="#979797"/>
<path d="M16.7 47.6001H31C32.3 47.6001 33.4001 48.6001 33.4001 50.0001C33.4001 51.4001 32.4 52.4001 31 52.4001H16.7C15.4 52.4001 14.3 51.4001 14.3 50.0001C14.3 48.6001 15.3 47.6001 16.7 47.6001Z" fill="#BFBFBF"/>
<path d="M2.4 47.6001H7.2C8.5 47.6001 9.6 48.6001 9.6 50.0001C9.6 51.4001 8.6 52.4001 7.2 52.4001H2.4C1 52.4001 0 51.3001 0 50.0001C0 48.7001 1 47.6001 2.4 47.6001Z" fill="#888888"/>
<path d="M45.2001 19H64.2C65.5 19 66.6 20 66.6 21.4C66.6 22.7 65.6 23.8 64.2 23.8H45.2001C43.9001 23.8 42.8 22.8 42.8 21.4C42.9 20.1 43.9001 19 45.2001 19Z" fill="#9D9D9D"/>
<path d="M2.4 19H35.7C37 19 38.1 20 38.1 21.4C38.1 22.7 37.1 23.8 35.7 23.8H2.4C1.1 23.8 0 22.8 0 21.4C0 20.1 1 19 2.4 19Z" fill="#979797"/>
<path d="M16.7 66.7H59.6C60.9 66.7 62 67.7 62 69.1C62 70.4 61 71.5 59.6 71.5H16.7C15.4 71.5 14.3 70.5 14.3 69.1C14.3 67.7 15.3 66.7 16.7 66.7Z" fill="#BFBFBF"/>
<path d="M2.4 66.7H7.2C8.5 66.7 9.6 67.7 9.6 69.1C9.6 70.4 8.6 71.5 7.2 71.5H2.4C1 71.4 0 70.4 0 69C0 67.7 1 66.7 2.4 66.7Z" fill="#9D9D9D"/>
<path d="M59.5001 28.6001H83.3001C84.6001 28.6001 85.7001 29.6001 85.7001 31.0001C85.7001 32.3001 84.7001 33.4001 83.3001 33.4001H59.5001C58.2001 33.4001 57.1001 32.4001 57.1001 31.0001C57.1001 29.6001 58.2001 28.6001 59.5001 28.6001Z" fill="#888888"/>
<path d="M59.5001 38.1001H83.3001C84.6001 38.1001 85.7001 39.1001 85.7001 40.5001C85.7001 41.8001 84.7001 42.9001 83.3001 42.9001H59.5001C58.2001 42.9001 57.1001 41.9001 57.1001 40.5001C57.1001 39.1001 58.2001 38.1001 59.5001 38.1001Z" fill="#BFBFBF"/>
<path d="M2.4 0H59.5C60.8 0 61.9 1 61.9 2.4C61.9 3.8 60.9 4.8 59.5 4.8H2.4C1 4.8 0 3.7 0 2.4C0 1.1 1 0 2.4 0Z" fill="#979797"/>
<path opacity="0.5" d="M69.0001 0H97.6001C99.0001 0 100 1 100 2.4C100 3.8 99.0001 4.8 97.6001 4.8H69.0001C67.7001 4.8 66.6001 3.8 66.6001 2.4C66.6001 1 67.7001 0 69.0001 0Z" fill="#D3D3D3"/>
<path opacity="0.5" d="M69.0001 66.7H78.5001C79.8001 66.7 80.9001 67.7 80.9001 69.1C80.9001 70.4 79.9001 71.5 78.5001 71.5H69.0001C67.7001 71.5 66.6001 70.5 66.6001 69.1C66.7001 67.7 67.7001 66.7 69.0001 66.7Z" fill="#D3D3D3"/>
<path opacity="0.5" d="M88.1 66.7H97.6C98.9 66.7 100 67.7 100 69.1C100 70.4 99 71.5 97.6 71.5H88.1C86.8 71.5 85.7 70.5 85.7 69.1C85.7 67.7 86.8 66.7 88.1 66.7Z" fill="#D3D3D3"/>
<path opacity="0.5" d="M83.2999 57.1001H97.5999C98.8999 57.1001 99.9999 58.1001 99.9999 59.5001C99.9999 60.8001 98.9999 61.9001 97.5999 61.9001H83.2999C81.9999 61.9001 80.8999 60.9001 80.8999 59.5001C80.9999 58.2001 81.9999 57.1001 83.2999 57.1001Z" fill="#D3D3D3"/>
<path opacity="0.5" d="M83.2999 9.5H97.5999C98.8999 9.5 99.9999 10.5 99.9999 11.9C99.9999 13.2 98.9999 14.3 97.5999 14.3H83.2999C81.9999 14.3 80.8999 13.3 80.8999 11.9C80.9999 10.6 81.9999 9.5 83.2999 9.5Z" fill="#D3D3D3"/>
<path opacity="0.5" d="M88.1 47.6001H97.6C98.9 47.6001 100 48.6001 100 50.0001C100 51.4001 99 52.4001 97.6 52.4001H88.1C86.8 52.4001 85.7 51.4001 85.7 50.0001C85.7 48.6001 86.8 47.6001 88.1 47.6001Z" fill="#D3D3D3"/>
<path opacity="0.5" d="M88.1 19H97.6C98.9 19 100 20 100 21.4C100 22.7 99 23.8 97.6 23.8H88.1C86.8 23.8 85.7 22.8 85.7 21.4C85.7 20.1 86.8 19 88.1 19Z" fill="#D3D3D3"/>
<path opacity="0.5" d="M92.9 28.6001H97.7C99 28.6001 100.1 29.6001 100.1 31.0001C100.1 32.3001 99.1 33.4001 97.7 33.4001H92.9C91.6 33.4001 90.5 32.4001 90.5 31.0001C90.5 29.6001 91.5 28.6001 92.9 28.6001Z" fill="#D3D3D3"/>
<path opacity="0.5" d="M92.9 38.1001H97.7C99 38.1001 100.1 39.1001 100.1 40.5001C100.1 41.8001 99.1 42.9001 97.7 42.9001H92.9C91.6 42.9001 90.5 41.9001 90.5 40.5001C90.5 39.1001 91.5 38.1001 92.9 38.1001Z" fill="#D3D3D3"/>
<path opacity="0.5" d="M54.7999 76.2H97.6999C98.9999 76.2 100.1 77.2 100.1 78.6C100.1 79.9 99.0999 81 97.6999 81H54.7999C53.4999 81 52.3999 80 52.3999 78.6C52.3999 77.2 53.3999 76.2 54.7999 76.2Z" fill="#D3D3D3"/>
<path opacity="0.5" d="M35.7001 76.2H45.2001C46.5001 76.2 47.6 77.2 47.6 78.6C47.6 79.9 46.6 81 45.2001 81H35.7001C34.4001 81 33.3 80 33.3 78.6C33.3 77.2 34.4001 76.2 35.7001 76.2Z" fill="#D3D3D3"/>
<path opacity="0.5" d="M73.7999 95.2H97.5999C98.8999 95.2 99.9999 96.2 99.9999 97.6C99.9999 98.9 98.9999 100 97.5999 100H73.7999C72.4999 100 71.3999 99 71.3999 97.6C71.3999 96.3 72.4999 95.2 73.7999 95.2Z" fill="#D3D3D3"/>
<path opacity="0.5" d="M35.7001 95.2H64.3001C65.6001 95.2 66.7 96.2 66.7 97.6C66.7 98.9 65.7001 100 64.3001 100H35.7001C34.4001 100 33.3 99 33.3 97.6C33.3 96.3 34.4001 95.2 35.7001 95.2Z" fill="#D3D3D3"/>
<path opacity="0.5" d="M35.7001 28.6001H50C51.3 28.6001 52.4001 29.6001 52.4001 31.0001C52.4001 32.3001 51.4 33.4001 50 33.4001H35.7001C34.4001 33.4001 33.3 32.4001 33.3 31.0001C33.3 29.6001 34.4001 28.6001 35.7001 28.6001Z" fill="#D3D3D3"/>
<path opacity="0.5" d="M35.7001 38.1001H50C51.3 38.1001 52.4001 39.1001 52.4001 40.5001C52.4001 41.8001 51.4 42.9001 50 42.9001H35.7001C34.4001 42.9001 33.3 41.9001 33.3 40.5001C33.3 39.1001 34.4001 38.1001 35.7001 38.1001Z" fill="#D3D3D3"/>
</g>
<defs>
<clipPath id="clip0_790_10313">
<rect width="100" height="100" fill="white"/>
</clipPath>
</defs>
</svg>
