<svg width="100" height="100" viewBox="0 0 100 100" fill="none" xmlns="http://www.w3.org/2000/svg">
<g clip-path="url(#clip0_790_10402)">
<path d="M49.6 0C24.3 0 25.8 11 25.8 11V22.4H50V25.8H16.2C16.2 25.8 0 24 0 49.6C0 75.2 14.2 74.3 14.2 74.3H22.7V62.4C22.7 62.4 22.2 48.2 36.7 48.2H60.7C60.7 48.2 74.2 48.4 74.2 35.2V13.3C74.1 13.3 76.2 0 49.6 0ZM36.3 7.7C36.9 7.7 37.4 7.8 38 8C38.5 8.2 39 8.5 39.4 8.9C39.8 9.3 40.1 9.8 40.3 10.3C40.5 10.8 40.6 11.4 40.6 12C40.6 12.6 40.5 13.1 40.3 13.7C40.1 14.2 39.8 14.7 39.4 15.1C39 15.5 38.5 15.8 38 16C37.5 16.2 36.9 16.3 36.3 16.3C35.7 16.3 35.2 16.2 34.6 16C34 15.8 33.6 15.5 33.2 15.1C32.8 14.7 32.5 14.2 32.3 13.7C32.1 13.2 32 12.6 32 12C32 11.4 32.1 10.9 32.3 10.3C32.5 9.8 32.8 9.3 33.2 8.9C33.6 8.5 34.1 8.2 34.6 8C35.1 7.8 35.7 7.7 36.3 7.7Z" fill="url(#paint0_linear_790_10402)"/>
<path d="M50.4 99.4999C75.7999 99.4999 74.1999 88.4999 74.1999 88.4999V77.0999H49.9V73.6999H83.6999C83.6999 73.6999 99.8999 75.4999 99.8999 49.8999C99.8999 24.2999 85.6999 25.1999 85.6999 25.1999H77.1999V36.9999C77.1999 36.9999 77.7 51.1999 63.2 51.1999H39.2C39.2 51.1999 25.7 50.9999 25.7 64.1999V86.0999C25.9 86.1999 23.8 99.4999 50.4 99.4999ZM63.7 91.7999C63.1 91.7999 62.5999 91.6999 62 91.4999C61.5 91.2999 61 90.9999 60.5999 90.5999C60.1999 90.1999 59.9 89.6999 59.7 89.1999C59.5 88.6999 59.4 88.0999 59.4 87.4999C59.4 86.8999 59.5 86.3999 59.7 85.7999C59.9 85.2999 60.1999 84.7999 60.5999 84.3999C61 83.9999 61.5 83.6999 62 83.4999C62.5 83.2999 63.1 83.1999 63.7 83.1999C64.2999 83.1999 64.8 83.2999 65.4 83.4999C65.9 83.6999 66.4 83.9999 66.8 84.3999C67.2 84.7999 67.4999 85.2999 67.6999 85.7999C67.8999 86.2999 68 86.8999 68 87.4999C68 88.0999 67.8999 88.5999 67.6999 89.1999C67.4999 89.6999 67.2 90.1999 66.8 90.5999C66.4 90.9999 65.9 91.2999 65.4 91.4999C64.9 91.6999 64.2999 91.7999 63.7 91.7999Z" fill="url(#paint1_linear_790_10402)"/>
</g>
<defs>
<linearGradient id="paint0_linear_790_10402" x1="9.3078" y1="9.2533" x2="58.8647" y2="58.3159" gradientUnits="userSpaceOnUse">
<stop stop-color="#6F6F6F"/>
<stop offset="1" stop-color="#5E5E5E"/>
</linearGradient>
<linearGradient id="paint1_linear_790_10402" x1="39.7455" y1="40.7521" x2="92.964" y2="91.0612" gradientUnits="userSpaceOnUse">
<stop stop-color="#DADADA"/>
<stop offset="1" stop-color="#C5C5C5"/>
</linearGradient>
<clipPath id="clip0_790_10402">
<rect width="100" height="100" fill="white"/>
</clipPath>
</defs>
</svg>
