<svg width="100" height="100" viewBox="0 0 100 100" fill="none" xmlns="http://www.w3.org/2000/svg">
<g clip-path="url(#clip0_790_10447)">
<path d="M30.6 59.3001C25.6 59.3001 21.6 55.2001 21.6 50.2001C21.6 45.2001 25.6 41.1001 30.6 41.1001C35.6 41.1001 39.6 45.2001 39.6 50.2001C39.7 55.3001 35.6 59.3001 30.6 59.3001ZM9 77.4001C4 77.4001 0 73.3001 0 68.3001C0 65.9001 1 63.6001 2.7 61.9001C4.4 60.2001 6.7 59.2001 9.1 59.2001C14.1 59.2001 18.1 63.3001 18.1 68.3001C18.1 70.7001 17.1 73.0001 15.4 74.7001C13.7 76.4001 11.4 77.4001 9 77.4001ZM91.1 77.4001C88.7 77.4001 86.4 76.5001 84.7 74.8001C83 73.1001 82 70.8001 82 68.4001C82 63.4001 86 59.3001 91 59.3001C93.4 59.3001 95.7 60.2001 97.4 61.9001C99.1 63.6001 100.1 65.9001 100.1 68.3001C100 73.2001 96 77.3001 91.1 77.4001Z" fill="black"/>
<path d="M74.1001 41.7001C71.6001 40.9001 69.0001 40.6001 66.5001 40.3001C62.5001 39.9001 60.9001 38.3001 60.3001 34.3001C59.9001 32.1001 59.4001 29.8001 58.4001 27.8001C56.6001 24.0001 52.3001 22.2001 48.0001 23.2001C44.4001 24.0001 41.3001 27.7001 41.2001 31.4001C41.0001 35.6001 43.4001 39.3001 47.6001 40.5001C49.6001 41.1001 51.7001 41.4001 53.8001 41.5001C57.6001 41.8001 58.9001 42.9001 59.9001 44.6001C60.6001 45.7001 61.2001 46.8001 61.2001 50.0001C61.2001 53.3001 60.6001 54.3001 59.9001 55.4001C58.9001 57.1001 57.6001 58.3001 53.8001 58.5001C51.7001 58.7001 49.6001 59.0001 47.6001 59.5001C43.4001 60.8001 41.0001 64.4001 41.2001 68.6001C41.4001 72.3001 44.4001 75.9001 48.0001 76.8001C52.3001 77.8001 56.6001 76.1001 58.4001 72.2001C59.4001 70.2001 59.9001 67.9001 60.3001 65.7001C61.0001 61.7001 62.6001 60.2001 66.5001 59.7001C69.1001 59.4001 71.7001 59.1001 74.1001 58.3001C77.8001 57.1001 80.1001 53.7001 80.1001 49.8001C80.1001 46.3001 77.9001 42.9001 74.1001 41.7001Z" fill="#797979"/>
</g>
<defs>
<clipPath id="clip0_790_10447">
<rect width="100" height="100" fill="white"/>
</clipPath>
</defs>
</svg>
