<svg width="100" height="100" viewBox="0 0 100 100" fill="none" xmlns="http://www.w3.org/2000/svg">
<g clip-path="url(#clip0_790_10463)">
<path d="M69.3001 69.3C73.0001 68.9 75.8 65.7 75.7001 61.9C75.6001 58.1 72.4001 55 68.6001 55H68.3001C64.4001 55.1 61.3001 58.4 61.4001 62.4C61.5 64.3 62.3001 66 63.4001 67.1C59.1001 75.6 52.5 81.9 42.5 87.1C35.8 90.7 28.8001 91.9 21.8001 91C16.1001 90.2 11.6001 87.7 8.80005 83.5C4.70005 77.3 4.30005 70.5 7.80005 63.8C10.2001 59 14.0001 55.4 16.5001 53.6C16.0001 51.9 15.2001 49.1 14.8001 47.1C-3.59995 60.5 -1.69995 78.6 3.90005 87.1C8.10005 93.5 16.6001 97.4 26.0001 97.4C28.5001 97.4 31.1 97.1 33.6 96.5C49.9 93.4 62.3001 83.7 69.3001 69.3ZM91.7001 53.5C82.0001 42.2 67.8 36 51.5 36H49.5C48.4001 33.7 45.9 32.2 43.3 32.2H43C39.1 32.3 36 35.6 36.1 39.6C36.2 43.4 39.4001 46.5 43.2001 46.5H43.5C46.3 46.4 48.7001 44.6 49.7001 42.2H52C61.7001 42.2 70.8 45 79.1001 50.5C85.5001 54.5 90.0001 60 92.6001 66.6C94.8 71.9 94.6001 77.2 92.3001 81.6C88.7001 88.3 82.8001 92 74.9001 92C69.8001 92 65.0001 90.5 62.4001 89.3C61 90.6 58.5 92.6 56.7001 93.9C62.2001 96.4 67.8 97.8 73.1001 97.8C85.3 97.8 94.4001 91.1 97.8001 84.3C101.5 77.1 101.2 64.3 91.7001 53.5ZM27.0001 71.5C27.1001 75.3 30.3 78.4 34.1 78.4H34.4001C38.3001 78.3 41.4 75 41.3 71C41.2001 67.2 38 64.1 34.2001 64.1H33.9001C33.6001 64.1 33.3 64.1 33 64.2C27.8 55.5 25.6001 46.1 26.4001 35.9C26.9001 28.3 29.5001 21.6 33.9001 16.2C37.6001 11.5 44.7 9.2 49.6 9.1C63.1 8.8 68.8 25.6 69.2001 32.4C70.9 32.8 73.7001 33.7 75.6001 34.3C74.0001 13.7 61.3 3 49.1 3C37.6 3 27.1001 11.3 22.9001 23.5C17.0001 39.8 20.9001 55.4 28.0001 67.8C27.3001 68.7 26.9001 70.1 27.0001 71.5Z" fill="#646464"/>
</g>
<defs>
<clipPath id="clip0_790_10463">
<rect width="100" height="100" fill="white"/>
</clipPath>
</defs>
</svg>
