<svg width="100" height="100" viewBox="0 0 100 100" fill="none" xmlns="http://www.w3.org/2000/svg">
<path d="M86.1001 56.1001C82.6001 56.1001 79.6001 57.0001 77.0001 58.2001C76.1001 56.4001 75.1001 54.7001 75.0001 53.5001C74.8001 52.1001 74.6001 51.2001 74.8001 49.6001C75.0001 47.9001 76.0001 45.5001 76.0001 45.3001C76.0001 45.1001 75.8001 44.3001 73.8001 44.2001C71.8001 44.2001 70.1001 44.6001 69.9001 45.1001C69.7001 45.6001 69.3001 46.8001 69.1001 48.1001C68.8001 49.9001 65.1001 56.4001 63.0001 59.9001C62.3001 58.6001 61.7001 57.4001 61.6001 56.5001C61.4001 55.1001 61.2001 54.2001 61.4001 52.6001C61.6001 51.0001 62.6001 48.5001 62.6001 48.3001C62.6001 48.1001 62.4001 47.3001 60.4001 47.2001C58.4001 47.2001 56.7001 47.6001 56.5001 48.1001C56.3001 48.6001 56.1001 49.9001 55.7001 51.1001C55.3001 52.3001 50.4001 63.2001 49.1001 66.0001C48.4001 67.4001 47.9001 68.6001 47.5001 69.4001C47.5001 69.4001 47.5001 69.5001 47.4001 69.5001C47.1001 70.2001 46.9001 70.5001 46.9001 70.5001C46.6001 71.0001 46.3001 71.4001 46.2001 71.4001C46.1001 71.4001 45.9001 70.1001 46.2001 68.3001C46.9001 64.5001 48.7001 58.6001 48.6001 58.4001C48.6001 58.3001 48.9001 57.3001 47.5001 56.7001C46.1001 56.2001 45.6001 57.0001 45.4001 57.0001C45.3001 57.0001 45.2001 57.3001 45.2001 57.3001C45.2001 57.3001 46.8001 50.7001 42.2001 50.7001C39.3001 50.7001 35.3001 53.9001 33.4001 56.7001C32.2001 57.4001 29.5001 58.8001 26.7001 60.4001C25.6001 61.0001 24.5001 61.6001 23.5001 62.2001C23.4001 62.1001 23.4001 62.0001 23.3001 62.0001C17.4001 56.2001 7.1001 52.0001 7.5001 44.0001C7.7001 41.0001 8.7001 33.4001 27.3001 24.1001C42.7001 16.5001 54.9001 18.6001 57.0001 23.3001C60.0001 29.9001 50.4001 42.3001 34.6001 44.1001C28.5001 44.8001 25.4001 42.4001 24.6001 41.6001C23.8001 40.7001 23.6001 40.6001 23.3001 40.8001C22.8001 41.1001 23.1001 41.9001 23.3001 42.4001C23.8001 43.6001 25.7001 45.8001 29.0001 46.9001C31.9001 47.8001 39.0001 48.4001 47.6001 45.1001C57.2001 41.4001 64.8001 31.0001 62.5001 22.3001C60.3001 13.5001 45.7001 10.6001 31.9001 15.5001C23.7001 18.4001 14.8001 23.0001 8.4001 29.0001C0.800098 36.0001 -0.399902 42.2001 0.100098 44.8001C1.9001 54.0001 14.6001 60.0001 19.6001 64.4001C19.3001 64.5001 19.1001 64.7001 18.9001 64.8001C16.4001 66.1001 6.7001 71.1001 4.3001 76.5001C1.6001 82.6001 4.7001 86.9001 6.8001 87.5001C13.3001 89.3001 20.0001 86.1001 23.6001 80.7001C27.2001 75.3001 26.8001 68.4001 25.1001 65.2001C25.1001 65.2001 25.1001 65.1001 25.0001 65.1001C25.7001 64.7001 26.3001 64.3001 27.0001 63.9001C28.3001 63.1001 29.6001 62.4001 30.7001 61.8001C30.1001 63.5001 29.6001 65.5001 29.4001 68.4001C29.1001 71.8001 30.5001 76.3001 32.4001 78.0001C33.2001 78.8001 34.2001 78.8001 34.8001 78.8001C37.0001 78.8001 37.9001 77.0001 39.0001 74.9001C40.3001 72.3001 41.5001 69.3001 41.5001 69.3001C41.5001 69.3001 40.0001 77.4001 44.0001 77.4001C45.5001 77.4001 46.9001 75.5001 47.6001 74.5001C47.6001 74.5001 47.6001 74.4001 47.7001 74.3001C47.8001 74.1001 47.9001 73.9001 47.9001 73.9001C48.5001 72.9001 49.8001 70.6001 51.8001 66.7001C54.3001 61.7001 56.7001 55.5001 56.7001 55.5001C56.7001 55.5001 56.9001 57.0001 57.7001 59.5001C58.1001 61.0001 59.1001 62.6001 59.8001 64.2001C59.2001 65.0001 58.9001 65.5001 58.9001 65.5001C58.4001 66.1001 57.9001 66.8001 57.3001 67.5001C55.3001 69.9001 52.9001 72.6001 52.6001 73.4001C52.2001 74.3001 52.3001 75.0001 53.0001 75.6001C53.5001 76.0001 54.5001 76.1001 55.4001 76.0001C57.2001 75.9001 58.5001 75.4001 59.1001 75.2001C60.1001 74.9001 61.2001 74.3001 62.3001 73.5001C64.3001 72.1001 65.4001 70.0001 65.3001 67.3001C65.2001 65.8001 64.8001 64.3001 64.1001 62.9001C64.3001 62.6001 64.4001 62.4001 64.6001 62.1001C67.7001 57.6001 70.1001 52.6001 70.1001 52.6001C70.1001 52.6001 70.3001 54.1001 71.1001 56.6001C71.5001 57.9001 72.2001 59.3001 72.9001 60.6001C70.0001 63.0001 68.2001 65.7001 67.6001 67.5001C66.4001 70.8001 67.3001 72.3001 69.0001 72.7001C69.8001 72.9001 70.9001 72.5001 71.7001 72.2001C72.7001 71.9001 73.9001 71.3001 75.1001 70.5001C77.1001 69.1001 78.9001 67.0001 78.8001 64.3001C78.7001 63.1001 78.4001 61.8001 78.0001 60.6001C80.5001 59.6001 83.6001 59.0001 87.7001 59.5001C96.4001 60.5001 98.1001 65.9001 97.8001 68.2001C97.5001 70.5001 95.6001 71.7001 95.0001 72.1001C94.4001 72.5001 94.2001 72.6001 94.3001 72.9001C94.4001 73.3001 94.7001 73.3001 95.2001 73.2001C95.9001 73.1001 99.8001 71.4001 99.9001 67.2001C100.3 61.9001 95.1001 56.1001 86.1001 56.1001ZM19.0001 78.7001C16.1001 81.8001 12.1001 83.0001 10.4001 82.0001C8.5001 80.9001 9.3001 76.3001 12.8001 73.0001C15.0001 71.0001 17.7001 69.1001 19.6001 67.9001C20.0001 67.6001 20.6001 67.3001 21.4001 66.8001C21.5001 66.7001 21.6001 66.7001 21.6001 66.7001C21.7001 66.6001 21.9001 66.5001 22.0001 66.4001C23.3001 71.2001 22.1001 75.4001 19.0001 78.7001ZM40.0001 64.4001C39.0001 66.8001 36.9001 73.1001 35.6001 72.8001C34.5001 72.5001 33.8001 67.8001 35.4001 63.1001C36.2001 60.7001 37.8001 57.9001 38.8001 56.8001C40.4001 55.0001 42.1001 54.5001 42.5001 55.2001C43.1001 56.1001 40.7001 62.9001 40.0001 64.4001ZM57.4001 72.7001C57.0001 72.9001 56.6001 73.1001 56.4001 73.0001C56.3001 72.9001 56.6001 72.6001 56.6001 72.6001C56.6001 72.6001 58.8001 70.3001 59.6001 69.2001C60.1001 68.6001 60.7001 67.8001 61.3001 67.0001C61.3001 67.1001 61.3001 67.2001 61.3001 67.2001C61.3001 70.1001 58.6001 72.0001 57.4001 72.7001ZM70.7001 69.7001C70.4001 69.5001 70.4001 68.8001 71.5001 66.5001C71.9001 65.6001 72.9001 64.1001 74.5001 62.7001C74.7001 63.3001 74.8001 63.9001 74.8001 64.4001C74.8001 67.8001 72.3001 69.1001 70.7001 69.7001Z" fill="#8B8B8B"/>
</svg>
