<svg width="100" height="100" viewBox="0 0 100 100" fill="none" xmlns="http://www.w3.org/2000/svg">
<g clip-path="url(#clip0_790_10559)">
<path fill-rule="evenodd" clip-rule="evenodd" d="M36.6 0C31.1 0 26.6 4.5 26.6 10C26.6 15.5 31.1 20 36.6 20H46.6V10C46.6 4.5 42.1 0 36.6 0ZM36.6 26.7H10C4.5 26.7 0 31.2 0 36.7C0 42.2 4.5 46.7 10 46.7H36.6C42.1 46.7 46.6 42.2 46.6 36.7C46.6 31.1 42.1 26.7 36.6 26.7Z" fill="#9F9F9F"/>
<path fill-rule="evenodd" clip-rule="evenodd" d="M99.8 36.7C99.8 31.2 95.3 26.7 89.8 26.7C84.3 26.7 79.8 31.2 79.8 36.7V46.7H89.8C95.3 46.7 99.8 42.2 99.8 36.7ZM73.2 36.7V10C73.2 4.5 68.7 0 63.2 0C57.7 0 53.2 4.5 53.2 10V36.7C53.2 42.2 57.7 46.7 63.2 46.7C68.7 46.7 73.2 42.2 73.2 36.7Z" fill="#878787"/>
<path fill-rule="evenodd" clip-rule="evenodd" d="M63.2 100C68.7 100 73.2 95.5 73.2 90C73.2 84.5 68.7 80 63.2 80H53.2V90C53.2 95.5 57.7 100 63.2 100ZM63.2 73.3001H89.8C95.3 73.3001 99.8 68.8 99.8 63.3C99.8 57.8 95.3 53.3 89.8 53.3H63.2C57.7 53.3 53.2 57.8 53.2 63.3C53.2 68.8 57.7 73.3001 63.2 73.3001Z" fill="#B5B5B5"/>
<path fill-rule="evenodd" clip-rule="evenodd" d="M0 63.3C0 68.8 4.5 73.3001 10 73.3001C15.5 73.3001 20 68.8 20 63.3V53.3H10C4.5 53.3 0 57.8 0 63.3ZM26.6 63.3V90C26.6 95.5 31.1 100 36.6 100C42.1 100 46.6 95.5 46.6 90V63.3C46.6 57.8 42.1 53.3 36.6 53.3C31.1 53.3 26.6 57.8 26.6 63.3Z" fill="#5F5F5F"/>
</g>
<defs>
<clipPath id="clip0_790_10559">
<rect width="100" height="100" fill="white"/>
</clipPath>
</defs>
</svg>
