<svg width="100" height="100" viewBox="0 0 100 100" fill="none" xmlns="http://www.w3.org/2000/svg">
<g clip-path="url(#clip0_790_4049)">
<path d="M50 74.9894C63.8071 74.9894 75 63.7966 75 49.9894C75 36.1823 63.8071 24.9894 50 24.9894C36.1929 24.9894 25 36.1823 25 49.9894C25 63.7966 36.1929 74.9894 50 74.9894Z" fill="white"/>
<path d="M50.0001 25.0005H93.2942C88.9071 17.3992 82.5961 11.0869 74.9956 6.69841C67.3951 2.30988 58.7732 -0.000215501 49.9967 0.00039685C41.2203 0.0010092 32.5987 2.31231 24.9988 6.7019C17.399 11.0915 11.0888 17.4046 6.70276 25.0065L28.3498 62.5005L28.3692 62.4955C26.1671 58.6981 25.0051 54.3873 25.0001 49.9977C24.9952 45.608 26.1476 41.2947 28.3411 37.4924C30.5347 33.6901 33.6918 30.5333 37.4944 28.3401C41.2969 26.147 45.6104 24.9951 50.0001 25.0005Z" fill="url(#paint0_linear_790_4049)"/>
<path d="M50 69.7921C60.9307 69.7921 69.7917 60.9311 69.7917 50.0005C69.7917 39.0698 60.9307 30.2088 50 30.2088C39.0694 30.2088 30.2084 39.0698 30.2084 50.0005C30.2084 60.9311 39.0694 69.7921 50 69.7921Z" fill="#1A73E8"/>
<path d="M71.6486 62.5065L50.0015 100C58.7779 100.002 67.4 97.6922 75.0007 93.3042C82.6015 88.9163 88.913 82.6045 93.3006 75.0036C97.6883 67.4026 99.9974 58.7805 99.9959 50.0041C99.9943 41.2276 97.6821 32.6063 93.2917 25.0069H49.9978L49.9926 25.0263C54.3822 25.0179 58.6965 26.1668 62.5006 28.3573C66.3046 30.5478 69.464 33.7025 71.6601 37.5034C73.8562 41.3042 75.0115 45.6168 75.0095 50.0065C75.0074 54.3962 73.8482 58.7077 71.6486 62.5065Z" fill="url(#paint1_linear_790_4049)"/>
<path d="M28.3513 62.5069L6.70421 25.013C2.31488 32.613 0.00386715 41.2347 0.00354007 50.0111C0.003213 58.7876 2.31358 67.4094 6.70234 75.0098C11.0911 82.6101 17.4035 88.921 25.005 93.3078C32.6064 97.6947 41.2288 100.003 50.0052 100L71.6523 62.5065L71.6384 62.4924C69.4508 66.2981 66.2986 69.4599 62.4995 71.659C58.7004 73.8581 54.3887 75.0168 49.999 75.0183C45.6094 75.0197 41.2969 73.864 37.4963 71.6674C33.6958 69.4709 30.5414 66.3112 28.3513 62.5069Z" fill="url(#paint2_linear_790_4049)"/>
</g>
<defs>
<linearGradient id="paint0_linear_790_4049" x1="6.70276" y1="31.2505" x2="93.2942" y2="31.2505" gradientUnits="userSpaceOnUse">
<stop stop-color="#D93025"/>
<stop offset="1" stop-color="#EA4335"/>
</linearGradient>
<linearGradient id="paint1_linear_790_4049" x1="43.1707" y1="99.3319" x2="86.4665" y2="24.3415" gradientUnits="userSpaceOnUse">
<stop stop-color="#FCC934"/>
<stop offset="1" stop-color="#FBBC04"/>
</linearGradient>
<linearGradient id="paint2_linear_790_4049" x1="55.4127" y1="96.8786" x2="12.1169" y2="21.888" gradientUnits="userSpaceOnUse">
<stop stop-color="#1E8E3E"/>
<stop offset="1" stop-color="#34A853"/>
</linearGradient>
<clipPath id="clip0_790_4049">
<rect width="100" height="100" fill="white" transform="translate(0 0.000488281)"/>
</clipPath>
</defs>
</svg>
